<svg version="1.2" xmlns="http://www.w3.org/2000/svg" viewBox="0 0 541 92" width="541" height="92">
	<title>20240807AdfactorsApprovedID_SkColbrandlineH-svg</title>
	<style>
		.s0 { fill: #e28f26 } 
		.s1 { fill: #ffffff } 
		.s2 { fill: #414042 } 
		.s3 { fill: none } 
	</style>
	<g>
		<g id="Layer_1">
			<g>
				<g>
					<g>
						<path class="s0" d="m12 0.6h70.1c6 0 10.9 4.9 10.9 11v70c0 6.1-4.9 10.9-10.9 10.9h-70.1c-6 0-10.9-4.8-10.9-10.9v-70c0-6.1 4.9-11 10.9-11z"/>
						<path fill-rule="evenodd" class="s1" d="m74.5 18.5c6 6 9 14.1 8.7 23.5 0 7.9-3.6 15.6-9.5 20.7-5.2 4.4-11.6 6.4-18.2 5.5-4.6-0.6-6.9-3-10.2-6.3q-0.4-0.5-0.9-1c-5 0.4-10.3 0.4-16.4-0.2-4-0.4-6.9-3.3-6.9-6.9 0-1.9 0.8-3.6 2.2-4.9 1.4-1.2 3.2-1.7 5.3-1.5 4.7 0.4 8.6 2.4 13.9 7.1q1.8 1.5 3.1 2.8c3.2-0.6 5.7-3.5 5.7-6.8 0-3.3-2.6-5.9-6.5-6.4l-11.9-0.9c-4-0.2-6.9-3-6.9-6.8 0-3.8 3.1-6.8 7-6.8h24v-3.1h-12.2c-1 0-1.7-0.8-1.7-1.7 0-0.9 0.7-1.7 1.7-1.7h25.7c1 0 1.7 0.8 1.7 1.7 0 0.9-0.7 1.7-1.7 1.7h-10.1v29.6c0 0.9-0.8 1.6-1.7 1.6-1 0-1.8-0.7-1.8-1.6v-23.2h-23.9c-2 0-3.6 1.6-3.6 3.5 0 1.9 1.5 3.3 3.7 3.5l12.1 0.9c5.6 0.7 9.5 4.7 9.5 9.7 0 4.1-2.7 7.9-6.4 9.5 2.8 2.9 4.4 4.5 7.7 4.9 5.5 0.7 11-1 15.4-4.7 5.2-4.5 8.3-11.3 8.3-18.2 0.3-8.5-2.4-15.8-7.7-21.1-5.6-5.7-13.8-8.8-23-8.8-19.1 0-34.6 15.5-34.6 34.5 0 19 15.5 34.4 34.6 34.4 3.4 0 6.7-0.5 9.9-1.5q-0.1-0.5-0.1-1.2c0-3.9 3.3-7.1 7.3-7.1 1.9 0 3.7 0.7 5 1.9 0.8 0.7 1.5 1.7 1.9 2.8q0.5 1.1 0.5 2.4c0 4-3.3 7.2-7.4 7.2-2.4 0-4.5-1.1-5.8-2.9-3.6 1.2-7.4 1.7-11.3 1.7-21 0-38.1-16.9-38.1-37.7 0-20.9 17.1-37.8 38.1-37.8 10.2 0 19.3 3.4 25.5 9.7zm-8.3 56.1c-2.2 0-3.9 1.7-3.9 3.8 0 1.2 0.6 2.3 1.6 3 0.6 0.4 1.4 0.7 2.2 0.7 2.2 0 3.9-1.7 3.9-3.7q0-0.2 0-0.3c-0.1-1.2-0.8-2.3-1.8-2.9-0.6-0.4-1.3-0.6-2.1-0.6zm-37.8-17.3c4.7 0.5 8.9 0.6 12.8 0.4q-0.4-0.3-0.9-0.7c-5.4-4.8-8.7-6-12-6.3q-0.2 0-0.4 0c-0.9 0-1.7 0.3-2.2 0.8-0.7 0.5-1.1 1.4-1.1 2.3 0 2.2 2 3.4 3.8 3.6z"/>
					</g>
					<g>
						<g>
							<path fill-rule="evenodd" class="s2" d="m113.4 70.1h3.7q1 0 2 0.1 1 0.1 1.9 0.5 0.8 0.4 1.3 1.2 0.5 0.8 0.5 2.1 0 1.6-1 2.5-0.9 1-2.6 1.3l4.1 6.6h-2.1l-3.9-6.5h-2.2v6.5h-1.7v-14.3zm3.2 6.3q0.7 0 1.5-0.1 0.7 0 1.4-0.2 0.6-0.3 1-0.7 0.4-0.5 0.4-1.4 0-0.8-0.3-1.2-0.3-0.5-0.8-0.7-0.5-0.3-1.1-0.4-0.6-0.1-1.2-0.1h-2.4v4.8z"/>
							<path fill-rule="evenodd" class="s2" d="m136.6 82.7q-0.8 1-1.8 1.5-1 0.4-2.4 0.4-1.1 0-2-0.4-0.8-0.4-1.5-1-0.6-0.7-0.9-1.6-0.3-0.9-0.3-2 0-1.1 0.3-2 0.4-0.9 1-1.5 0.7-0.7 1.6-1.1 0.8-0.3 1.9-0.3 1 0 1.8 0.3 0.8 0.3 1.4 1 0.6 0.6 1 1.5 0.3 0.9 0.3 2.1v0.5h-7.7q0.1 0.6 0.3 1.2 0.3 0.5 0.7 1 0.4 0.4 0.9 0.6 0.6 0.3 1.2 0.3 1.1 0 1.8-0.4 0.7-0.4 1.2-1.1zm-1.3-3.8q0-1.2-0.8-2-0.7-0.7-2.1-0.7-1.3 0-2.1 0.7-0.8 0.8-0.9 2z"/>
							<path fill-rule="evenodd" class="s2" d="m142.1 74.9h1.6v1.4q0.6-0.8 1.5-1.2 0.8-0.4 1.9-0.4 1.1 0 2 0.4 0.9 0.3 1.6 1 0.6 0.7 1 1.6 0.3 0.9 0.3 1.9 0 1.1-0.3 2-0.4 0.9-1 1.6-0.7 0.7-1.5 1-0.9 0.4-1.9 0.4-1.3 0-2.2-0.6-1-0.5-1.4-1.3h-0.1v6.3h-1.5c0 0 0-14.1 0-14.1zm1.6 4.7q0 0.8 0.2 1.4 0.2 0.6 0.7 1.1 0.4 0.5 1 0.8 0.6 0.2 1.4 0.2 0.8 0 1.4-0.2 0.6-0.3 1-0.8 0.5-0.5 0.7-1.1 0.2-0.6 0.3-1.4-0.1-0.7-0.3-1.3-0.2-0.7-0.7-1.2-0.4-0.4-1-0.7-0.6-0.3-1.4-0.3-0.8 0-1.4 0.3-0.6 0.3-1 0.7-0.5 0.5-0.7 1.2-0.3 0.6-0.2 1.3z"/>
							<path class="s2" d="m165.4 82.1q0 0.7 0.1 1.2 0 0.6 0 1.1h-1.5q0-0.4 0-0.8 0-0.4 0-0.8-0.2 0.4-0.5 0.7-0.3 0.3-0.7 0.6-0.4 0.2-0.9 0.4-0.5 0.1-1.1 0.1-0.9 0-1.6-0.3-0.7-0.3-1.1-0.8-0.5-0.5-0.7-1.2-0.2-0.7-0.2-1.5v-5.9h1.6v5.7q0 1.2 0.5 1.9 0.5 0.7 1.6 0.7 0.8 0 1.4-0.3 0.5-0.2 0.9-0.7 0.3-0.5 0.5-1.2 0.2-0.7 0.2-1.5v-4.6h1.5v7.2z"/>
							<path class="s2" d="m176.3 76.3h-2.8v4.7q0 0.4 0.1 0.8 0 0.4 0.1 0.7 0.2 0.3 0.4 0.5 0.3 0.1 0.9 0.1 0.3 0 0.7 0 0.3-0.1 0.7-0.3v1.5q-0.4 0.1-0.9 0.2-0.5 0.1-0.9 0.1-0.9 0-1.4-0.2-0.5-0.2-0.8-0.6-0.3-0.5-0.3-1-0.1-0.6-0.1-1.4v-5.2h-2.1v-1.3h2.1v-2.7h1.5v2.7h2.8c0 0 0 1.3 0 1.4z"/>
							<path fill-rule="evenodd" class="s2" d="m180.9 76.1q0.7-0.7 1.7-1.1 1-0.3 2-0.3 2.1 0 3.1 1 0.9 1 0.9 3v4q0 0.4 0 0.9 0.1 0.4 0.1 0.8h-1.5q0-0.3-0.1-0.7 0-0.4 0-0.7-0.5 0.7-1.2 1.2-0.8 0.4-1.9 0.4-0.7 0-1.4-0.2-0.6-0.2-1.1-0.5-0.5-0.4-0.7-0.9-0.3-0.5-0.3-1.2 0-1.2 0.6-1.8 0.6-0.7 1.5-1 0.9-0.4 1.9-0.4 1.1-0.1 1.9-0.1h0.6v-0.3q0-1-0.6-1.5-0.6-0.6-1.7-0.6-0.8 0-1.5 0.3-0.7 0.2-1.3 0.8l-1-1.1zm4.6 3.7q-1.5 0-2.4 0.5-0.9 0.4-0.9 1.4 0 0.8 0.6 1.2 0.6 0.4 1.5 0.4 0.6 0 1.2-0.2 0.5-0.3 0.8-0.7 0.4-0.4 0.5-0.9 0.2-0.5 0.2-1.1v-0.6h-1.5z"/>
							<path class="s2" d="m199.4 76.3h-2.8v4.7q0 0.4 0 0.8 0 0.4 0.2 0.7 0.1 0.3 0.4 0.5 0.3 0.1 0.8 0.1 0.3 0 0.7 0 0.4-0.1 0.7-0.3l0.1 1.5q-0.5 0.1-0.9 0.2-0.5 0.1-1 0.1-0.8 0-1.3-0.2-0.5-0.2-0.8-0.6-0.3-0.5-0.4-1-0.1-0.6-0.1-1.4v-5.2h-2v-1.3h2v-2.7h1.6v2.7h2.8c0 0 0 1.3 0 1.4z"/>
							<path class="s2" d="m203.8 71.2q0-0.4 0.4-0.8 0.3-0.3 0.8-0.3 0.5 0 0.8 0.3 0.3 0.4 0.3 0.8 0 0.5-0.3 0.9-0.3 0.3-0.8 0.3-0.5 0-0.9-0.3-0.3-0.4-0.3-0.9zm0.4 3.7h1.6v9.5h-1.6z"/>
							<path fill-rule="evenodd" class="s2" d="m211.1 79.6q0-1.1 0.4-2 0.3-0.9 1-1.5 0.7-0.7 1.6-1.1 0.9-0.3 2-0.3 1.1 0 2.1 0.3 0.9 0.4 1.5 1.1 0.7 0.6 1.1 1.5 0.4 0.9 0.4 2 0 1.1-0.4 2.1-0.4 0.9-1.1 1.5-0.6 0.7-1.5 1-1 0.4-2.1 0.4-1.1 0-2-0.4-0.9-0.3-1.6-1-0.6-0.6-1-1.5-0.4-1-0.4-2.1zm1.7 0q0 0.8 0.2 1.4 0.2 0.7 0.7 1.1 0.4 0.5 1.1 0.8 0.6 0.3 1.3 0.2 0.8 0 1.4-0.2 0.6-0.3 1.1-0.8 0.4-0.4 0.7-1.1 0.2-0.6 0.2-1.4 0-0.7-0.2-1.3-0.3-0.7-0.7-1.1-0.5-0.5-1.1-0.8-0.6-0.3-1.4-0.3-0.7 0-1.3 0.3-0.7 0.3-1.1 0.8-0.5 0.4-0.7 1.1-0.2 0.6-0.2 1.3z"/>
							<path class="s2" d="m226.3 77.2q0-0.7 0-1.3 0-0.5 0-1h1.4q0 0.4 0.1 0.8 0 0.4 0 0.8 0.2-0.4 0.5-0.7 0.3-0.3 0.7-0.6 0.4-0.2 0.9-0.4 0.5-0.1 1.1-0.1 0.9 0 1.6 0.3 0.7 0.2 1.1 0.7 0.4 0.6 0.7 1.3 0.2 0.7 0.2 1.5v5.9h-1.6v-5.7q0-1.2-0.5-1.9-0.5-0.7-1.7-0.7-0.7 0-1.3 0.3-0.5 0.2-0.9 0.7-0.3 0.5-0.5 1.2-0.2 0.6-0.2 1.5v4.6h-1.6v-7.3z"/>
							<path fill-rule="evenodd" class="s2" d="m256.8 82.3q-0.9 1.1-1.9 1.7-1 0.6-2.4 0.6-0.9 0-1.8-0.2-0.8-0.3-1.4-0.8-0.6-0.6-1-1.3-0.4-0.8-0.4-1.8 0-0.7 0.3-1.3 0.3-0.7 0.7-1.2 0.4-0.5 1-0.9 0.6-0.4 1.2-0.7-0.7-0.7-1.2-1.5-0.5-0.8-0.5-1.8 0-0.8 0.3-1.4 0.3-0.6 0.8-1 0.5-0.5 1.2-0.7 0.7-0.2 1.4-0.2 0.7 0 1.4 0.2 0.6 0.2 1.1 0.6 0.5 0.4 0.8 1 0.3 0.6 0.3 1.4 0 0.7-0.3 1.2-0.3 0.6-0.7 1-0.4 0.4-1 0.8-0.5 0.3-1.1 0.6l3.1 3.2 1.9-3.2h1.9l-2.7 4.4 3.2 3.4h-2.3l-1.9-2.1zm-4.6-4.9q-0.5 0.3-0.9 0.6-0.5 0.3-0.9 0.6-0.3 0.4-0.5 0.9-0.3 0.4-0.3 1 0 0.6 0.3 1.1 0.2 0.4 0.6 0.8 0.4 0.4 0.9 0.6 0.5 0.2 1 0.2 0.6 0 1-0.2 0.5-0.1 0.9-0.4 0.4-0.3 0.7-0.6 0.4-0.4 0.7-0.8l-3.5-3.8zm0.4-1.8q0 0 0 0zm0.8-0.5q0.4-0.2 0.8-0.5 0.3-0.3 0.6-0.7 0.2-0.4 0.2-0.9 0-0.8-0.6-1.3-0.5-0.4-1.2-0.4-0.9 0-1.5 0.5-0.6 0.5-0.6 1.4 0 0.6 0.3 1 0.3 0.5 0.7 0.9l0.5 0.5q0.4-0.2 0.8-0.5z"/>
							<path class="s2" d="m283.8 73q-0.7-0.8-1.6-1.3-1-0.4-2-0.4-1.2 0-2.2 0.5-1 0.5-1.7 1.3-0.8 0.8-1.2 1.9-0.4 1-0.4 2.2 0 1.3 0.4 2.3 0.4 1.1 1.1 1.9 0.8 0.8 1.8 1.3 1 0.5 2.2 0.4 1.3 0.1 2.3-0.5 1.1-0.5 1.8-1.4l1.3 1q-1 1.3-2.3 1.9-1.4 0.6-3.1 0.6-1.6 0-2.9-0.5-1.3-0.6-2.3-1.6-1-1-1.5-2.4-0.6-1.3-0.6-3c0-1.1 0.2-2 0.5-2.9q0.6-1.4 1.5-2.4 1-1 2.3-1.6 1.4-0.6 3-0.6 1.4 0 2.8 0.5 1.3 0.6 2.2 1.8l-1.4 1z"/>
							<path class="s2" d="m290.4 77.2q0-0.7 0-1.3-0.1-0.5-0.1-1h1.5q0 0.4 0 0.8 0.1 0.4 0.1 0.8 0.2-0.4 0.4-0.7 0.3-0.3 0.7-0.6 0.5-0.2 1-0.4 0.5-0.1 1-0.1 0.2 0 0.4 0 0.1 0 0.3 0.1l-0.1 1.6q-0.4-0.1-0.9-0.1-1.4 0-2.1 0.9-0.6 0.9-0.6 2.6v4.6h-1.6v-7.2z"/>
							<path class="s2" d="m300 71.2q0-0.4 0.3-0.8 0.4-0.3 0.9-0.3 0.5 0 0.8 0.3 0.3 0.4 0.3 0.8 0 0.5-0.3 0.9-0.3 0.3-0.8 0.3-0.5 0-0.9-0.3-0.3-0.4-0.3-0.9zm0.4 3.7h1.6v9.5h-1.6z"/>
							<path class="s2" d="m313 76.3h-2.8v4.7q0 0.4 0 0.8 0 0.4 0.2 0.7 0.1 0.3 0.4 0.5 0.3 0.1 0.8 0.1 0.3 0 0.7 0 0.4-0.1 0.7-0.3l0.1 1.5q-0.4 0.1-0.9 0.2-0.5 0.1-1 0.1-0.8 0-1.3-0.2-0.5-0.2-0.8-0.6-0.3-0.5-0.4-1-0.1-0.6-0.1-1.4v-5.2h-2v-1.3h2v-2.7h1.6v2.7h2.8c0 0 0 1.3 0 1.4z"/>
							<path class="s2" d="m317.4 71.2q0-0.4 0.4-0.8 0.3-0.3 0.8-0.3 0.5 0 0.8 0.3 0.3 0.4 0.3 0.8 0 0.5-0.3 0.9-0.3 0.3-0.8 0.3-0.5 0-0.8-0.3-0.4-0.4-0.4-0.9zm0.4 3.7h1.6v9.5h-1.6z"/>
							<path class="s2" d="m332 77.3q-0.5-0.6-1.1-0.9-0.6-0.3-1.3-0.3-0.8 0-1.4 0.3-0.6 0.3-1 0.8-0.4 0.4-0.6 1.1-0.2 0.6-0.2 1.3 0 0.8 0.2 1.4 0.2 0.6 0.7 1.1 0.4 0.5 1 0.8 0.6 0.3 1.3 0.3 1.5 0 2.4-1.2l1.1 1.1q-0.6 0.8-1.6 1.1-0.9 0.4-1.9 0.4-1.1 0-2-0.4-0.9-0.3-1.6-1-0.6-0.7-1-1.6-0.3-0.9-0.3-2 0-1 0.3-1.9 0.4-1 1-1.6 0.7-0.7 1.6-1 0.9-0.4 2-0.4c0.7 0 1.3 0.1 2 0.3q0.9 0.4 1.6 1.2z"/>
							<path fill-rule="evenodd" class="s2" d="m337.6 76.1q0.7-0.7 1.7-1.1 1-0.3 2-0.3 2.1 0 3.1 1 0.9 1 0.9 3v4q0 0.4 0 0.9 0.1 0.4 0.1 0.8h-1.5q-0.1-0.3-0.1-0.7 0-0.4 0-0.7-0.5 0.7-1.3 1.2-0.7 0.4-1.8 0.4-0.7 0-1.4-0.2-0.6-0.2-1.1-0.5-0.5-0.4-0.8-0.9-0.2-0.5-0.2-1.2 0-1.2 0.6-1.8 0.6-0.7 1.5-1 0.9-0.4 1.9-0.4 1.1-0.1 1.9-0.1h0.6v-0.3q0-1-0.6-1.5-0.6-0.6-1.7-0.6-0.8 0-1.5 0.3-0.8 0.2-1.3 0.8l-1-1.1zm4.6 3.7q-1.6 0-2.4 0.5-0.9 0.4-0.9 1.4 0 0.8 0.6 1.2 0.6 0.4 1.5 0.4 0.6 0 1.2-0.2 0.5-0.3 0.8-0.7 0.4-0.4 0.5-0.9 0.2-0.5 0.2-1.1v-0.6h-1.5z"/>
							<path class="s2" d="m351 69.1h1.6v15.3h-1.6z"/>
							<path class="s2" d="m367.1 70.1h1.7v14.3h-1.7z"/>
							<path class="s2" d="m375 81.9q0.4 0.6 1 0.9 0.6 0.4 1.4 0.4 0.4 0 0.7-0.1 0.4-0.1 0.7-0.3 0.3-0.2 0.5-0.4 0.2-0.3 0.2-0.7 0-0.4-0.2-0.6-0.2-0.3-0.4-0.4-0.3-0.2-0.7-0.3-0.3-0.1-0.7-0.2-0.7-0.1-1.3-0.3-0.6-0.2-1.1-0.5-0.4-0.3-0.7-0.7-0.3-0.5-0.3-1.2 0-0.7 0.3-1.2 0.3-0.6 0.8-0.9 0.5-0.3 1.2-0.5 0.6-0.2 1.3-0.2 1 0 1.8 0.4 0.9 0.4 1.4 1.3l-1.3 0.9q-0.3-0.5-0.8-0.8-0.5-0.4-1.2-0.3-0.4 0-0.7 0-0.3 0.1-0.6 0.3-0.3 0.1-0.4 0.4-0.2 0.2-0.2 0.6 0 0.3 0.2 0.5 0.2 0.2 0.5 0.4 0.3 0.1 0.8 0.2 0.4 0.2 0.9 0.2 0.6 0.2 1.2 0.3 0.5 0.2 1 0.6 0.4 0.3 0.6 0.8 0.3 0.4 0.3 1.2 0 0.8-0.4 1.3-0.3 0.6-0.8 0.9-0.5 0.4-1.2 0.6-0.7 0.1-1.4 0.1-1.2 0-2.1-0.4-0.9-0.3-1.6-1.3z"/>
							<path class="s2" d="m386.3 81.9q0.5 0.6 1 0.9 0.6 0.4 1.4 0.4 0.4 0 0.8-0.1 0.3-0.1 0.6-0.3 0.3-0.2 0.5-0.4 0.2-0.3 0.2-0.7 0-0.4-0.2-0.6-0.1-0.3-0.4-0.4-0.3-0.2-0.7-0.3-0.3-0.1-0.7-0.2-0.7-0.1-1.3-0.3-0.6-0.2-1-0.5-0.5-0.3-0.8-0.7-0.2-0.5-0.2-1.2 0-0.7 0.3-1.2 0.3-0.6 0.8-0.9 0.5-0.3 1.1-0.5 0.6-0.2 1.3-0.2 1 0 1.9 0.4 0.8 0.4 1.3 1.3l-1.3 0.9q-0.3-0.5-0.8-0.8-0.5-0.4-1.2-0.3-0.3 0-0.7 0-0.3 0.1-0.6 0.3-0.2 0.1-0.4 0.4-0.2 0.2-0.2 0.6 0 0.3 0.2 0.5 0.2 0.2 0.5 0.4 0.4 0.1 0.8 0.2 0.4 0.2 0.9 0.2 0.6 0.2 1.2 0.3 0.6 0.2 1 0.6 0.4 0.3 0.7 0.8 0.2 0.4 0.2 1.2 0 0.8-0.3 1.3-0.3 0.6-0.9 0.9-0.5 0.4-1.2 0.6-0.7 0.1-1.4 0.1-1.2 0-2.1-0.4-0.8-0.3-1.5-1.3z"/>
							<path class="s2" d="m405.7 82.1q0 0.7 0 1.2 0.1 0.6 0.1 1.1h-1.5q0-0.4-0.1-0.8 0-0.4 0-0.8-0.2 0.4-0.5 0.7-0.3 0.3-0.7 0.6-0.4 0.2-0.9 0.4-0.5 0.1-1.1 0.1-0.9 0-1.6-0.3-0.6-0.3-1.1-0.8-0.4-0.5-0.6-1.2-0.3-0.7-0.3-1.5v-5.9h1.6v5.7q0 1.2 0.5 1.9 0.6 0.7 1.7 0.7 0.7 0 1.3-0.3 0.5-0.2 0.9-0.7 0.4-0.5 0.5-1.2 0.2-0.7 0.2-1.5v-4.6h1.6v7.2z"/>
							<path fill-rule="evenodd" class="s2" d="m419.8 82.7q-0.8 1-1.8 1.5-1 0.4-2.4 0.4-1.1 0-2-0.4-0.9-0.4-1.5-1-0.6-0.7-0.9-1.6-0.4-0.9-0.4-2 0-1.1 0.4-2 0.4-0.9 1-1.5 0.7-0.7 1.5-1.1 0.9-0.3 2-0.3 1 0 1.8 0.3 0.8 0.3 1.4 1 0.6 0.6 0.9 1.5 0.4 0.9 0.4 2.1v0.5h-7.7q0.1 0.6 0.3 1.2 0.3 0.5 0.7 1 0.4 0.4 0.9 0.6 0.6 0.3 1.2 0.3 1.1 0 1.8-0.4 0.7-0.4 1.2-1.1zm-1.3-3.8q-0.1-1.2-0.8-2-0.8-0.7-2.1-0.7-1.3 0-2.1 0.7-0.8 0.8-1 2z"/>
							<path class="s2" d="m425.5 81.9q0.5 0.6 1.1 0.9 0.5 0.4 1.4 0.4 0.3 0 0.7-0.1 0.4-0.1 0.7-0.3 0.3-0.2 0.5-0.4 0.1-0.3 0.1-0.7 0-0.4-0.1-0.6-0.2-0.3-0.5-0.4-0.3-0.2-0.6-0.3-0.4-0.1-0.8-0.2-0.6-0.1-1.2-0.3-0.7-0.2-1.1-0.5-0.5-0.3-0.7-0.7-0.3-0.5-0.3-1.2 0-0.7 0.3-1.2 0.3-0.6 0.8-0.9 0.5-0.3 1.1-0.5 0.7-0.2 1.3-0.2 1 0 1.9 0.4 0.8 0.4 1.3 1.3l-1.3 0.9q-0.3-0.5-0.8-0.8-0.5-0.4-1.2-0.3-0.3 0-0.6 0-0.4 0.1-0.6 0.3-0.3 0.1-0.5 0.4-0.1 0.2-0.1 0.6 0 0.3 0.1 0.5 0.2 0.2 0.6 0.4 0.3 0.1 0.7 0.2 0.5 0.2 0.9 0.2 0.7 0.2 1.2 0.3 0.6 0.2 1 0.6 0.4 0.3 0.7 0.8 0.2 0.4 0.2 1.2 0 0.8-0.3 1.3-0.3 0.6-0.9 0.9-0.5 0.4-1.2 0.6-0.6 0.1-1.3 0.1-1.3 0-2.1-0.4-0.9-0.3-1.6-1.3z"/>
							<path fill-rule="evenodd" class="s2" d="m449.9 70.1h1.6l6.1 14.3h-2l-1.4-3.6h-7.2l-1.4 3.6h-2c0 0 6.3-14.3 6.3-14.3zm0.8 2.2l-3 7h5.8l-2.8-7z"/>
							<path fill-rule="evenodd" class="s2" d="m469.8 82.7h-0.1q-0.4 0.8-1.3 1.3-1 0.6-2.3 0.6-1 0-1.8-0.4-0.9-0.3-1.5-1-0.7-0.7-1-1.6-0.4-0.9-0.4-2 0-1 0.4-1.9 0.3-0.9 1-1.6 0.6-0.7 1.5-1 0.9-0.4 2.1-0.4 1 0 1.8 0.4 0.9 0.4 1.5 1.2h0.1v-7.2h1.6v15.3h-1.6zm0-3.1q0-0.7-0.2-1.4-0.3-0.6-0.7-1.1-0.5-0.4-1.1-0.7-0.6-0.3-1.4-0.3-0.7 0-1.3 0.3-0.7 0.3-1.1 0.7-0.4 0.5-0.7 1.1-0.2 0.7-0.2 1.4 0 0.8 0.2 1.4 0.2 0.6 0.7 1.1 0.4 0.5 1.1 0.8 0.6 0.2 1.3 0.2 0.8 0 1.4-0.2 0.6-0.3 1.1-0.8 0.4-0.5 0.7-1.1 0.2-0.6 0.2-1.4z"/>
							<path class="s2" d="m481.3 84.4h-1.7l-3.9-9.5h1.8l3 7.4 2.8-7.4h1.7z"/>
							<path class="s2" d="m489.2 71.2q0-0.4 0.4-0.8 0.3-0.3 0.8-0.3 0.5 0 0.8 0.3 0.3 0.4 0.3 0.8 0 0.5-0.3 0.9-0.3 0.3-0.8 0.3-0.5 0-0.8-0.3-0.4-0.4-0.4-0.9zm0.4 3.7h1.6v9.5h-1.6z"/>
							<path class="s2" d="m497.2 81.9q0.5 0.6 1.1 0.9 0.5 0.4 1.3 0.4 0.4 0 0.8-0.1 0.4-0.1 0.7-0.3 0.3-0.2 0.4-0.4 0.2-0.3 0.2-0.7 0-0.4-0.1-0.6-0.2-0.3-0.5-0.4-0.3-0.2-0.6-0.3-0.4-0.1-0.8-0.2-0.7-0.1-1.3-0.3-0.6-0.2-1-0.5-0.5-0.3-0.8-0.7-0.2-0.5-0.2-1.2 0-0.7 0.3-1.2 0.3-0.6 0.8-0.9 0.5-0.3 1.1-0.5 0.6-0.2 1.3-0.2 1 0 1.9 0.4 0.8 0.4 1.3 1.3l-1.3 0.9q-0.3-0.5-0.8-0.8-0.5-0.4-1.2-0.3-0.3 0-0.7 0-0.3 0.1-0.6 0.3-0.2 0.1-0.4 0.4-0.1 0.2-0.1 0.6-0.1 0.3 0.1 0.5 0.2 0.2 0.6 0.4 0.3 0.1 0.7 0.2 0.5 0.2 0.9 0.2 0.7 0.2 1.2 0.3 0.6 0.2 1 0.6 0.4 0.3 0.7 0.8 0.2 0.4 0.2 1.2 0 0.8-0.3 1.3-0.3 0.6-0.9 0.9-0.5 0.4-1.2 0.6-0.6 0.1-1.4 0.1-1.2 0-2-0.4-0.9-0.3-1.6-1.3z"/>
							<path fill-rule="evenodd" class="s2" d="m507.8 79.6q0-1.1 0.4-2 0.4-0.9 1-1.5 0.7-0.7 1.6-1.1 1-0.3 2.1-0.3 1.1 0 2 0.3 0.9 0.4 1.6 1.1 0.6 0.6 1 1.5 0.4 0.9 0.4 2 0 1.1-0.4 2.1-0.4 0.9-1 1.5-0.7 0.7-1.6 1-0.9 0.4-2 0.4-1.1 0-2.1-0.4-0.9-0.3-1.6-1-0.6-0.6-1-1.5-0.4-1-0.4-2.1zm1.7 0q0 0.8 0.2 1.4 0.3 0.7 0.7 1.1 0.5 0.5 1.1 0.8 0.6 0.3 1.4 0.2 0.7 0 1.3-0.2 0.7-0.3 1.1-0.8 0.4-0.4 0.7-1.1 0.2-0.6 0.2-1.4 0-0.7-0.2-1.3-0.2-0.7-0.7-1.1-0.4-0.5-1.1-0.8-0.6-0.3-1.3-0.3-0.8 0-1.4 0.3-0.6 0.3-1.1 0.8-0.4 0.4-0.7 1.1-0.2 0.6-0.2 1.3z"/>
							<path class="s2" d="m523.1 77.2q0-0.7-0.1-1.3 0-0.5 0-1h1.5q0 0.4 0 0.8 0 0.4 0 0.8h0.1q0.1-0.4 0.4-0.7 0.3-0.3 0.7-0.6 0.4-0.2 0.9-0.4 0.5-0.1 1.1-0.1 0.2 0 0.3 0 0.2 0 0.4 0.1l-0.1 1.6q-0.5-0.1-0.9-0.1-1.5 0-2.1 0.9-0.7 0.9-0.7 2.6v4.6h-1.5c0 0 0-7.2 0-7.2z"/>
							<path class="s2" d="m536.4 86.5q-0.3 0.6-0.5 1.1-0.3 0.5-0.6 0.9-0.4 0.3-0.9 0.5-0.5 0.2-1.2 0.2-0.3 0-0.7 0-0.4-0.1-0.7-0.2l0.2-1.4q0.3 0.1 0.5 0.1 0.3 0.1 0.6 0.1 0.8 0 1.1-0.5 0.4-0.4 0.7-1.1l0.6-1.8-3.9-9.5h1.8l3 7.4 2.8-7.4h1.7c0 0-4.5 11.6-4.5 11.6z"/>
						</g>
						<g>
							<path fill-rule="evenodd" class="s2" d="m136.5 21l17.5 40.9h-6.4l-4.1-10.1h-19.5l-4 10.1h-6.5l18-40.9zm4.9 25.9l-7.6-18.7h-0.1l-7.8 18.7z"/>
							<path fill-rule="evenodd" class="s2" d="m158.4 21h14.3q4.3 0 7.6 1 3.3 1 5.7 2.6 2.4 1.6 4 3.8 1.6 2.1 2.5 4.4 0.9 2.2 1.3 4.5 0.4 2.2 0.4 4.2 0 3.9-1.4 7.5-1.5 3.7-4.3 6.6-2.9 2.8-7 4.6-4.2 1.7-9.7 1.7h-13.4c0 0 0-40.9 0-40.9zm5.6 35.7h7q3.5 0 6.6-0.9 3.2-1 5.6-2.9 2.3-1.9 3.7-4.8 1.4-2.8 1.4-6.6 0-2-0.6-4.6-0.6-2.7-2.4-5-1.8-2.4-4.9-4.1-3.1-1.6-8.1-1.6h-8.3z"/>
							<path class="s2" d="m202.2 21h25.7v5.2h-20.2v12.8h18.8v5.2h-18.8v17.7h-5.5v-40.9z"/>
							<path fill-rule="evenodd" class="s2" d="m245 21h5l17.5 40.9h-6.4l-4.1-10.1h-19.5l-4 10.1h-6.5c0 0 18-40.9 18-40.9zm9.9 25.9l-7.6-18.7h-0.1l-7.8 18.7z"/>
							<path class="s2" d="m301.4 29.8q-1.8-2.2-4.4-3.4-2.7-1.2-5.5-1.2-3.5 0-6.3 1.3-2.8 1.3-4.8 3.5-2 2.3-3.1 5.3-1.1 3-1.1 6.5 0 3.2 1.1 6.1 1 2.9 3 5.1 1.9 2.2 4.8 3.5 2.8 1.3 6.4 1.2c2.3 0 4.4-0.4 6.1-1.4q2.7-1.4 4.6-4l4.6 3.5q-0.4 0.6-1.6 1.8-1.1 1.2-3 2.4-2 1.2-4.6 2.1-2.7 0.9-6.2 0.9-4.9 0-8.8-1.9-3.9-1.8-6.6-4.8-2.8-3-4.2-6.8-1.5-3.8-1.5-7.7 0-4.7 1.6-8.7 1.5-4.1 4.3-7 2.8-2.9 6.8-4.5 3.9-1.6 8.6-1.6 4.1 0 8 1.5 3.9 1.6 6.4 4.8l-4.6 3.6z"/>
							<path class="s2" d="m322.1 26.2h-13.2v-5.2h31.9v5.2h-13.2v35.7h-5.5z"/>
							<path fill-rule="evenodd" class="s2" d="m365.5 63q-4.7 0-8.6-1.7-3.9-1.6-6.8-4.5-2.8-2.9-4.3-6.9-1.6-3.9-1.6-8.4 0-4.6 1.6-8.5 1.5-4 4.3-6.9 2.9-2.9 6.8-4.5 3.9-1.7 8.6-1.7 4.7 0 8.6 1.7 3.9 1.6 6.7 4.5 2.8 2.9 4.4 6.9 1.6 3.9 1.6 8.5 0 4.5-1.6 8.4-1.6 4-4.4 6.9-2.8 2.9-6.7 4.5-3.9 1.7-8.6 1.7zm0-5.3q3.5 0.1 6.4-1.2 2.8-1.3 4.8-3.5 2-2.2 3.1-5.2 1.1-3 1.1-6.3 0-3.4-1.1-6.4-1.1-3-3.1-5.1-2-2.2-4.8-3.5-2.9-1.4-6.4-1.3-3.5-0.1-6.4 1.3-2.8 1.3-4.8 3.5-2 2.1-3.1 5.1-1.1 3-1.1 6.4 0 3.3 1.1 6.3 1.1 3 3.1 5.2 2 2.1 4.8 3.5 2.9 1.3 6.4 1.2z"/>
							<path fill-rule="evenodd" class="s2" d="m394.8 21h14.4q3.9 0 6.5 1.1 2.5 1 4 2.7 1.5 1.6 2 3.7 0.6 2 0.6 3.9c0 1.3-0.2 2.6-0.7 3.8q-0.7 1.9-2 3.3-1.3 1.5-3.2 2.5-1.8 1-4.2 1.2l11.7 18.7h-7l-10.4-18h-6.1v18h-5.6v-40.9zm5.6 18h7.2q1.7 0 3.2-0.2 1.6-0.3 2.9-1 1.2-0.7 2-2 0.7-1.3 0.7-3.3 0-2.1-0.7-3.4-0.8-1.3-2-2-1.3-0.7-2.9-1-1.5-0.2-3.2-0.2h-7.2z"/>
							<path class="s2" d="m431.3 53.3q1.5 2.3 3.8 3.4 2.4 1 4.9 1 1.4 0 2.8-0.4 1.5-0.4 2.6-1.3 1.2-0.9 2-2.1 0.7-1.3 0.7-3 0-2.3-1.5-3.6-1.5-1.2-3.7-2.1-2.2-0.8-4.9-1.6-2.6-0.8-4.8-2.2-2.2-1.3-3.7-3.7-1.5-2.3-1.5-6.3 0-1.8 0.7-3.8 0.8-2.1 2.5-3.7 1.7-1.7 4.3-2.8 2.6-1.2 6.3-1.2 3.4 0 6.5 1 3 0.9 5.3 3.7l-4.5 4.1q-1-1.6-2.9-2.6-1.9-1-4.4-1c-1.6 0-2.8 0.2-3.8 0.6q-1.5 0.7-2.5 1.6-0.9 1-1.3 2.1-0.3 1.1-0.3 2 0 2.6 1.5 4 1.5 1.4 3.7 2.2 2.2 0.9 4.8 1.6 2.7 0.7 4.9 1.9 2.2 1.3 3.7 3.4 1.5 2.1 1.5 5.8 0 2.9-1.1 5.3-1.1 2.4-3 4-1.9 1.6-4.5 2.5-2.6 0.8-5.6 0.8-3.9 0-7.4-1.4-3.6-1.3-5.7-4.2l4.6-4z"/>
							<path fill-rule="evenodd" class="s2" d="m477.1 21h14.4q4 0 6.5 1.1 2.5 1 4 2.7 1.5 1.6 2.1 3.7 0.5 2 0.5 3.9 0.1 1.9-0.5 4-0.6 2.1-2.1 3.7-1.5 1.6-4 2.7-2.5 1.1-6.5 1.1h-8.8v18h-5.6zm5.6 18h7.3q1.6 0 3.2-0.2 1.6-0.3 2.8-1 1.2-0.7 2-2 0.7-1.3 0.7-3.3 0-2.1-0.7-3.4-0.8-1.3-2-2-1.2-0.7-2.8-1-1.6-0.2-3.2-0.2h-7.3z"/>
							<path fill-rule="evenodd" class="s2" d="m511.4 21h14.4q3.9 0 6.5 1.1 2.5 1 4 2.7 1.5 1.6 2 3.7 0.6 2 0.6 3.9c0 1.3-0.2 2.6-0.7 3.8q-0.7 1.9-2 3.3-1.3 1.5-3.2 2.5-1.8 1-4.1 1.2l11.6 18.7h-7l-10.3-18h-6.2v18h-5.6v-40.9zm5.6 18h7.3q1.6 0 3.2-0.2 1.5-0.3 2.8-1 1.2-0.7 2-2 0.7-1.3 0.7-3.3 0-2.1-0.7-3.4-0.8-1.3-2-2-1.2-0.7-2.8-1-1.6-0.2-3.2-0.2h-7.3z"/>
						</g>
					</g>
				</g>
				<g>
					<g>
						<path class="s3" d="m113.4 21.1h40.9v40.8h-40.9z"/>
						<path class="s3" d="m-29.5-30h30.6v30.6h-30.6z"/>
						<path class="s3" d="m-29.5 92.5h30.6v30.7h-30.6z"/>
						<path class="s3" d="m540.2-30h30.6v30.6h-30.6z"/>
						<path class="s3" d="m540.2 92.5h30.6v30.7h-30.6z"/>
						<path class="s3" d="m1.1 21.1h9.4v40.8h-9.4z"/>
						<path class="s3" d="m93 21.1h20.4v40.8h-20.4z"/>
						<path class="s3" d="m154.3 21.1h40.8v40.8h-40.9z"/>
						<path class="s3" d="m195.1 21.1h40.8v40.8h-40.8z"/>
						<path class="s3" d="m235.9 21.1h40.8v40.8h-40.8z"/>
						<path class="s3" d="m276.7 21.1h40.9v40.8h-40.9z"/>
						<path class="s3" d="m317.6 21.1h40.8v40.8h-40.8z"/>
						<path class="s3" d="m358.4 21.1h40.9v40.8h-40.9z"/>
						<path class="s3" d="m399.3 21.1h40.8v40.8h-40.9z"/>
						<path class="s3" d="m440.1 21.1h40.8v40.8h-40.8z"/>
						<path class="s3" d="m480.9 21.1h40.9v40.8h-40.9z"/>
						<path class="s3" d="m521.8 21.1h4.1v40.8h-4.1z"/>
						<path class="s3" d="m113.4 61.9h40.9v4.1h-40.9z"/>
						<path class="s3" d="m30.9 0.6h40.9v4.1h-40.9z"/>
						<path class="s3" d="m30.9 4.7h40.9v4.1h-40.9z"/>
						<path class="s3" d="m30.9 84.4h40.9v4h-40.9z"/>
						<path class="s3" d="m30.9 88.5h40.9v4h-40.9z"/>
						<path class="s3" d="m113.4 66h40.9v4.1h-40.9z"/>
						<path class="s3" d="m113.4 70.1h40.9v4h-40.9z"/>
						<path class="s3" d="m113.4 74.2h40.9v4h-40.9z"/>
						<path class="s3" d="m113.4 78.2h40.9v4.1h-40.9z"/>
						<path class="s3" d="m113.4 82.3h40.9v4.1h-40.9z"/>
						<path class="s3" d="m113.4 86.4h40.9v4.1h-40.9z"/>
						<path class="s3" d="m113.4 90.5h40.9v4.1h-40.9z"/>
						<path class="s3" d="m525.9 21.1h4v40.8h-4z"/>
						<path class="s3" d="m530 21.1h4v40.8h-4z"/>
						<path class="s3" d="m534 21.1h4.1v40.8h-4.1z"/>
						<path class="s3" d="m538.1 21.1h4.1v40.8h-4.1z"/>
					</g>
					<path class="s3" d="m-29.5-30h600.3v153.2h-600.3z"/>
					<path class="s3" d="m1.1 0.6h539.1v91.9h-539.1z"/>
				</g>
			</g>
		</g>
	</g>
</svg>